<?xml version="1.0" encoding="UTF-8"?>
<!DOCTYPE svg  PUBLIC '-//W3C//DTD SVG 1.1//EN'  'http://www.w3.org/Graphics/SVG/1.1/DTD/svg11.dtd'>
<svg enable-background="new 0 0 1888 896" version="1.1" viewBox="0 0 1888 896" xml:space="preserve" xmlns="http://www.w3.org/2000/svg">
<path d="M516.446,1.105l516.443,894.734H0L516.446,1.105z" fill="#333"/>
<path d="m1124.2 651.31c0-13.558-1.989-25.719-5.979-36.483-3.99-11.165-11.37-21.531-22.14-31.101-10.78-9.569-26.34-19.139-46.681-28.708-19.95-9.969-46.28-20.335-78.995-31.101-38.299-12.759-75.203-27.113-110.71-43.062-35.507-16.349-67.224-35.287-95.15-56.818-27.926-21.93-50.068-47.448-66.426-76.555-16.357-29.505-24.535-63.796-24.535-102.87 0-37.48 8.378-71.173 25.134-101.08 16.756-30.303 40.095-56.02 70.016-77.153 30.321-21.53 65.828-37.878 106.52-49.043 40.693-11.562 85.176-17.343 133.44-17.343 63.841 0 120.09 11.164 168.76 33.493 49.069 21.93 87.37 53.23 114.9 93.899 27.931 40.271 41.891 87.918 41.891 142.94h-208.85c0-21.93-4.59-41.268-13.77-58.014-8.771-16.746-22.14-29.904-40.09-39.474-17.95-9.569-40.49-14.354-67.62-14.354-26.334 0-48.477 3.988-66.428 11.962-17.953 7.975-31.519 18.74-40.694 32.297-9.176 13.157-13.764 27.711-13.764 43.66 0 13.158 3.591 25.119 10.771 35.885 7.58 10.367 18.153 20.135 31.717 29.306 13.964 9.172 30.72 17.942 50.269 26.316 19.949 8.373 42.289 16.547 67.029 24.521 46.27 14.753 87.369 31.3 123.27 49.641 36.311 17.943 66.83 38.477 91.561 61.603 25.14 22.728 44.09 48.645 56.85 77.751 13.17 29.107 19.75 62.001 19.75 98.685 0 39.075-7.58 73.763-22.74 104.06-15.16 30.304-36.9 56.021-65.229 77.153-28.32 20.734-62.24 36.483-101.73 47.249-39.5 10.766-83.58 16.148-132.25 16.148-44.687 0-88.771-5.582-132.26-16.746-43.087-11.563-82.185-29.107-117.29-52.632-35.108-23.924-63.234-54.426-84.379-91.507-20.745-37.479-31.118-81.938-31.118-133.37h210.64c0 25.519 3.392 47.05 10.175 64.594 6.781 17.544 16.756 31.697 29.921 42.464 13.166 10.367 29.323 17.942 48.473 22.727 19.15 4.387 41.092 6.579 65.832 6.579 26.729 0 48.271-3.788 64.63-11.364 16.35-7.974 28.32-18.341 35.9-31.1 7.579-13.158 11.369-27.512 11.368-43.062z" fill="#333"/>
<path d="M1888,734.328v161.482h-440.439V734.328H1888z M1522.359,25v870.811h-210.05V25H1522.359z" fill="#333"/>
</svg>
