<svg xmlns="http://www.w3.org/2000/svg" width="1888" height="896" fill="none" viewBox="0 0 1888 896">
  <path fill="#333" d="m516.446 1.105 516.444 894.734H0L516.446 1.105Z"/>
  <path fill="#333" d="M1134.19 651.314c0-13.557-1.99-25.718-5.98-36.483-3.99-11.165-11.37-21.531-22.14-31.101-10.78-9.569-26.34-19.138-46.68-28.708-19.95-9.968-46.28-20.335-78.995-31.1-38.299-12.759-75.203-27.113-110.709-43.062-35.507-16.348-67.224-35.287-95.151-56.818-27.926-21.93-50.068-47.448-66.425-76.555-16.358-29.505-24.536-63.796-24.536-102.87 0-37.48 8.378-71.173 25.134-101.077 16.756-30.303 40.095-56.02 70.016-77.153 30.321-21.53 65.828-37.878 106.521-49.043C925.938 5.781 970.421 0 1018.69 0c63.84 0 120.09 11.164 168.76 33.493 49.07 21.93 87.37 53.23 114.9 93.899 27.93 40.271 41.89 87.918 41.89 142.942h-208.85c0-21.93-4.59-41.268-13.77-58.014-8.77-16.746-22.14-29.904-40.09-39.474-17.95-9.569-40.49-14.354-67.62-14.354-26.334 0-48.476 3.988-66.428 11.962-17.953 7.975-31.518 18.74-40.694 32.297-9.176 13.157-13.764 27.711-13.764 43.66 0 13.158 3.591 25.119 10.772 35.885 7.58 10.367 18.153 20.135 31.717 29.306 13.963 9.171 30.719 17.942 50.268 26.316 19.949 8.373 42.289 16.547 67.029 24.521 46.27 14.753 87.37 31.3 123.27 49.641 36.31 17.943 66.83 38.477 91.56 61.603 25.14 22.727 44.09 48.644 56.85 77.751 13.17 29.107 19.75 62.001 19.75 98.684 0 39.075-7.58 73.763-22.74 104.066-15.16 30.303-36.9 56.021-65.23 77.153-28.32 20.734-62.24 36.483-101.73 47.249-39.5 10.766-83.58 16.148-132.25 16.148-44.687 0-88.772-5.582-132.258-16.746-43.087-11.563-82.184-29.107-117.292-52.632-35.108-23.923-63.234-54.425-84.379-91.506-20.745-37.48-31.118-81.938-31.118-133.373H867.89c0 25.518 3.391 47.049 10.174 64.593 6.782 17.544 16.756 31.698 29.921 42.464 13.166 10.367 29.323 17.942 48.473 22.727 19.15 4.386 41.092 6.579 65.832 6.579 26.73 0 48.27-3.788 64.63-11.364 16.35-7.974 28.32-18.341 35.9-31.1 7.58-13.158 11.37-27.512 11.37-43.062Z"/>
  <path fill="#333" d="M1888 734.328v161.483h-440.44V734.328H1888ZM1522.36 25v870.811h-210.05V25h210.05Z"/>
</svg>
